<svg width="120" height="120" viewBox="0 0 120 120" fill="none" xmlns="http://www.w3.org/2000/svg">
<circle cx="60" cy="60" r="60" fill="#999999" fill-opacity="0.5"/>
<path d="M11.2514 94.9797C17.251 103.341 25.3003 110.018 34.6257 114.37C43.9511 118.723 54.2392 120.603 64.5012 119.831C74.7632 119.059 84.6541 115.66 93.2234 109.962C101.793 104.264 108.752 96.457 113.433 87.2924C118.114 78.1276 120.36 67.913 119.953 57.63C119.547 47.3471 116.502 37.3415 111.112 28.5749C105.722 19.8084 98.1682 12.5754 89.1759 7.5713C80.1835 2.56716 70.0552 -0.0399707 59.7643 0.000463125L60 60L11.2514 94.9797Z" fill="#9791FF"/>
<path d="M11.2514 94.9797C1.97424 82.0507 -1.78697 65.966 0.795198 50.2639C3.37737 34.5618 12.0914 20.5286 25.0203 11.2514L60 60L11.2514 94.9797Z" fill="#FF5959" fill-opacity="0.6"/>
<circle cx="60.0002" cy="59.9999" r="46.6667" fill="white"/>
</svg>
