<svg width="47" height="40" viewBox="0 0 47 40" fill="none" xmlns="http://www.w3.org/2000/svg">
<rect width="46.6133" height="40" rx="11" fill="white" fill-opacity="0.2"/>
<g clip-path="url(#clip0_2_8843)">
<path d="M15.4691 23.8541C14.8056 24.2124 14.0483 24.4516 13.227 24.4516C12.4056 24.4516 11.6484 24.2427 10.9849 23.8541C10.0378 24.2719 9.34345 25.1086 9.1856 26.125L8.90195 28.425C8.86988 28.7237 9.05981 29.0225 9.37552 29.082C10.5755 29.3212 11.8692 29.4402 13.2269 29.4402C14.5847 29.4402 15.8784 29.3212 17.0783 29.082C17.394 29.0225 17.584 28.7237 17.5519 28.425L17.2682 26.125C17.1424 25.1098 16.4469 24.2731 15.4689 23.8541H15.4691Z" fill="white"/>
<path d="M16.0683 20.2998C16.0683 21.7842 14.7969 22.9884 13.2269 22.9884C11.6582 22.9884 10.3855 21.7842 10.3855 20.2998C10.3855 18.8155 11.6582 17.6112 13.2269 17.6112C14.7969 17.6112 16.0683 18.8155 16.0683 20.2998Z" fill="white"/>
<path d="M10.3854 14.6543H11.996L12.7532 16.0884C12.9431 16.4467 13.5104 16.4467 13.7004 16.0884L14.4576 14.6543H16.0682C16.5739 14.6543 17.0154 14.2657 17.0154 13.7581V9.33651C17.0154 8.85806 16.6047 8.44031 16.0682 8.44031H10.3854C9.87973 8.44031 9.43823 8.8289 9.43823 9.33651V13.7581C9.43823 14.2657 9.88096 14.6543 10.3854 14.6543ZM11.6174 11.0987C11.8073 10.919 12.123 10.919 12.3117 11.0987L12.9111 11.6659L14.206 10.4406C14.3959 10.2609 14.7116 10.2609 14.9003 10.4406C15.0902 10.6203 15.0902 10.919 14.9003 11.0975L13.2897 12.6216C13.1947 12.7114 13.0689 12.7406 12.9419 12.7406C12.8161 12.7406 12.689 12.7103 12.5941 12.6216L11.6469 11.7254C11.4274 11.5772 11.4274 11.2784 11.6173 11.0987L11.6174 11.0987Z" fill="white"/>
<path d="M38.6114 26.1251C38.4856 25.1099 37.79 24.2428 36.8121 23.8542C36.1486 24.2125 35.3914 24.4517 34.57 24.4517C33.7486 24.4517 32.9914 24.2428 32.3279 23.8542C31.3808 24.272 30.6865 25.1087 30.5286 26.1251L30.245 28.4251C30.2129 28.7239 30.4028 29.0226 30.7185 29.0821C31.9185 29.3213 33.2122 29.4403 34.5699 29.4403C35.8957 29.4403 37.2214 29.3213 38.4213 29.0821C38.737 29.0226 38.927 28.7239 38.8949 28.4251L38.6114 26.1251Z" fill="white"/>
<path d="M37.4114 20.2998C37.4114 21.7842 36.1387 22.9884 34.5699 22.9884C33 22.9884 31.7285 21.7842 31.7285 20.2998C31.7285 18.8155 33 17.6112 34.5699 17.6112C36.1387 17.6112 37.4114 18.8155 37.4114 20.2998Z" fill="white"/>
<path d="M31.7284 14.6543H33.339L34.0962 16.0884C34.2862 16.4467 34.8535 16.4467 35.0434 16.0884L35.8006 14.6543H37.4112C37.9169 14.6543 38.3584 14.2657 38.3584 13.7581V9.33651C38.3584 8.85806 37.9477 8.44031 37.4112 8.44031H31.7284C31.2227 8.44031 30.7812 8.8289 30.7812 9.33651V13.7581C30.7812 14.2657 31.1919 14.6543 31.7284 14.6543ZM32.9592 11.0987C33.1491 10.919 33.4648 10.919 33.6535 11.0987L34.2528 11.6659L35.5478 10.4406C35.7377 10.2609 36.0534 10.2609 36.2421 10.4406C36.432 10.6203 36.432 10.919 36.2421 11.0975L34.6314 12.6216C34.5365 12.7114 34.4107 12.7406 34.2837 12.7406C34.1579 12.7406 34.0308 12.7103 33.9359 12.6216L32.9887 11.7254C32.7704 11.5772 32.7704 11.2784 32.9591 11.0987L32.9592 11.0987Z" fill="white"/>
<path d="M26.1402 23.8541C25.4767 24.2124 24.7195 24.4516 23.8981 24.4516C23.0768 24.4516 22.3196 24.2427 21.6561 23.8541C20.7089 24.2719 20.0146 25.1086 19.8567 26.125L19.5731 28.425C19.541 28.7237 19.7309 29.0225 20.0467 29.082C21.2466 29.3212 22.5403 29.4402 23.8981 29.4402C25.2558 29.4402 26.5495 29.3212 27.7494 29.082C28.0652 29.0225 28.2551 28.7237 28.223 28.425L27.9394 26.125C27.8123 25.1098 27.0872 24.2731 26.14 23.8541H26.1402Z" fill="white"/>
<path d="M26.7402 20.2998C26.7402 21.7842 25.4675 22.9884 23.8988 22.9884C22.3301 22.9884 21.0574 21.7842 21.0574 20.2998C21.0574 18.8155 22.3301 17.6112 23.8988 17.6112C25.4675 17.6112 26.7402 18.8155 26.7402 20.2998Z" fill="white"/>
<path d="M21.0574 14.6543H22.668L23.4252 16.0884C23.6151 16.4467 24.1824 16.4467 24.3724 16.0884L25.1296 14.6543H26.7402C27.2459 14.6543 27.6874 14.2657 27.6874 13.7581V9.33651C27.6874 8.85806 27.2767 8.44031 26.7402 8.44031H21.0574C20.5517 8.44031 20.1102 8.8289 20.1102 9.33651V13.7581C20.1102 14.2657 20.5209 14.6543 21.0574 14.6543ZM22.4152 10.8C22.2253 10.6203 22.2253 10.3216 22.4152 10.143C22.6051 9.96333 22.9208 9.96333 23.1095 10.143L23.8988 10.8899L24.6881 10.143C24.878 9.96333 25.1937 9.96333 25.3824 10.143C25.5723 10.3227 25.5723 10.6215 25.3824 10.8L24.5931 11.5468L25.3824 12.2937C25.5723 12.4734 25.5723 12.7721 25.3824 12.9507C25.2874 13.0405 25.1616 13.0697 25.0346 13.0697C24.9088 13.0697 24.7818 13.0393 24.6868 12.9507L23.8988 12.2038L23.1095 12.9507C23.0145 13.0405 22.8887 13.0697 22.7617 13.0697C22.6359 13.0697 22.5089 13.0393 22.4139 12.9507C22.224 12.771 22.224 12.4722 22.4139 12.2937L23.2032 11.5468L22.4152 10.8Z" fill="white"/>
</g>
<defs>
<clipPath id="clip0_2_8843">
<rect width="34.9599" height="30" fill="white" transform="translate(8.02832 4)"/>
</clipPath>
</defs>
</svg>
