<svg width="102" height="36" viewBox="0 0 102 36" fill="none" xmlns="http://www.w3.org/2000/svg">
<path d="M99.8173 13.9035C99.4 14.9679 98.8664 15.9412 98.2197 16.822C97.5731 17.7028 96.7036 18.1575 95.6114 18.1844C95.2075 18.0615 94.9814 17.8493 94.9348 17.5495C94.8866 17.2498 94.8916 16.9618 94.9448 16.689C94.9581 16.6485 94.9648 16.6064 94.9648 16.566C95.0994 15.4192 94.8201 14.429 94.1253 13.597C93.4304 12.7651 92.5011 12.1572 91.3358 11.7749C90.1704 11.3926 88.9469 11.3101 87.6669 11.529C86.3453 11.7614 85.1633 12.2565 84.1193 13.0144C83.0753 13.7722 82.176 14.9022 81.4213 16.4027C81.0755 17.1453 80.9076 17.9116 80.9126 18.6997C80.7879 18.8867 80.6616 19.0736 80.5319 19.2588C79.8852 20.18 79.2419 20.894 78.6019 21.3993C77.9618 21.9045 77.3783 22.0274 76.853 21.7681C76.5704 21.5491 76.4557 20.8435 76.5089 19.6478C76.5621 18.4539 76.7134 17.0948 76.9644 15.5724C77.2137 14.0501 77.4698 12.6708 77.7324 11.4364C77.9951 10.2003 78.1879 9.42565 78.3093 9.11241L73.1342 8.00599C71.7594 10.5051 70.9366 12.8123 70.6673 14.9274C70.4844 16.3606 70.4727 17.6691 70.624 18.8547C70.4013 19.1662 70.1802 19.4458 69.9591 19.6883C68.9084 20.8418 67.9044 21.4262 66.9468 21.4397C65.9893 21.4531 65.1132 21.1113 64.3186 20.4158C63.524 19.7203 62.849 18.8867 62.2971 17.9166C62.6479 17.2346 63.2945 16.5795 64.2371 15.9513C65.1797 15.3232 66.2652 14.9005 67.4921 14.6816L65.4507 10.7695C62.6479 11.1383 60.5849 12.6203 59.2649 15.2137C59.1835 12.9605 59.491 10.559 60.1842 8.00599C60.8791 5.45296 61.6637 3.16602 62.5398 1.14516C61.7984 0.954861 60.9689 0.762875 60.0529 0.572577C59.1502 0.382279 58.3273 0.190298 57.5859 0C55.7124 3.4001 54.4257 6.83726 53.7242 10.3115C53.1739 13.0379 52.9545 15.6566 53.0592 18.1726C52.5688 18.9439 52.0601 19.6579 51.5315 20.3147C50.7152 21.3252 50.012 21.7681 49.4186 21.6451C48.8534 21.4262 48.5558 20.8839 48.5292 20.0167C48.5026 19.1494 48.6273 18.1676 48.9032 17.0679C49.1792 15.9699 49.4867 14.9527 49.8225 14.0164C50.16 13.0817 50.4094 12.43 50.5706 12.0612C49.1958 11.7059 47.8626 11.2006 46.5676 10.5455C45.2742 9.89044 44.054 8.976 42.9086 7.80222C40.1724 10.6685 39.0885 13.0447 39.6537 14.9291C39.8033 14.9948 39.9529 15.0554 40.0992 15.1127C39.16 16.5155 38.1326 17.6405 37.0155 18.4825C35.5941 19.5535 34.1611 20.2272 32.7199 20.5C32.0333 20.692 31.2885 20.7728 30.4856 20.7458C29.6843 20.7189 28.9562 20.5202 28.3029 20.1514C27.6496 19.7826 27.1941 19.1763 26.9381 18.3292C29.2554 19.1898 31.1489 19.3093 32.6185 18.6879C34.088 18.0665 35.0738 16.8927 35.5808 15.1649C36.0862 13.4387 35.6523 11.8305 34.2775 10.3418C33.0374 9.15451 31.6692 8.54657 30.1747 8.51962C28.6786 8.49268 27.1525 8.8918 25.5965 9.71699C24.0405 10.5439 22.8669 11.7311 22.0789 13.2804C21.4788 14.4593 21.2444 15.825 21.374 17.3777C20.4913 18.2467 19.316 19.0483 17.8431 19.7826C18.2205 18.0766 18.1157 16.4616 17.5306 14.9392C16.9438 13.4168 15.9364 12.2296 14.5084 11.3758C13.0804 10.522 11.3016 10.2525 9.17209 10.5674C8.30931 10.7038 7.51468 10.9228 6.78655 11.2225L6.98937 9.93255L2.54247 10.8739C1.45028 15.4209 0.723814 19.471 0.35975 23.0277C-0.00431354 26.5845 -0.0924206 30.9091 0.097092 36L6.4441 33.7265C5.91879 31.992 5.53477 30.0738 5.29206 27.9721C5.04936 25.8704 5.06265 23.9371 5.33196 22.1773C6.20804 24.0348 7.38003 25.185 8.84958 25.6279C10.3191 26.0725 11.8918 26.0725 13.5691 25.6279C15.2465 25.185 16.8407 24.567 18.3501 23.7738C19.7249 23.09 21.015 22.1503 22.2235 20.9564C22.7488 22.0527 23.5584 22.957 24.6573 23.671C26.3828 24.7909 28.509 25.1564 31.0359 24.7674C33.5627 24.3783 35.8402 23.405 37.8683 21.8489C39.8232 20.3484 41.494 18.3057 42.8804 15.7257C43.7132 15.7341 44.7423 15.5573 45.9658 15.1935C45.103 17.2817 44.8038 19.2251 45.0664 21.0203C45.3291 22.8155 45.9492 24.1746 46.9266 25.0958C47.9041 26.0169 49.0396 26.2055 50.3329 25.6582C51.2755 25.153 52.2629 24.2116 53.2936 22.8324C53.39 22.7044 53.4798 22.5747 53.5745 22.4451C54.0267 24.6781 54.7499 26.6973 55.749 28.5043C56.7464 28.3123 57.669 28.0395 58.5185 27.6858C59.3547 27.3457 60.2773 27.0779 61.288 26.8876C60.8708 25.7542 60.4934 24.5703 60.156 23.3342C59.8185 22.0981 59.6572 21.086 59.6705 20.2928C60.3704 21.7546 61.3861 23.0227 62.7127 24.1022C64.0393 25.18 65.4922 25.7542 67.0682 25.8216C68.6458 25.8906 70.1685 25.1362 71.6364 23.5582C71.7744 23.41 71.9091 23.2483 72.0421 23.0816C72.2881 23.4976 72.5574 23.8731 72.8483 24.2032C73.6562 25.1177 74.4525 25.6296 75.2338 25.7391C77.0941 25.9445 78.9842 25.1631 80.9043 23.3949C81.2783 23.0496 81.6407 22.6707 81.9915 22.2564C82.4104 22.9385 82.949 23.5161 83.604 23.9876C84.6546 24.7455 85.8283 25.185 87.1216 25.308C88.4149 25.4309 89.6351 25.1985 90.7805 24.6124C91.9259 24.0247 92.8219 23.0362 93.4686 21.6434C94.2632 21.9163 95.1759 21.8927 96.2082 21.571C97.2389 21.2511 98.2696 20.5875 99.3019 19.5839C100.333 18.5802 101.232 17.1975 102 15.4377L99.8173 13.9035ZM11.4579 17.2716C11.3897 18.1793 10.9658 18.9961 10.1845 19.7186C9.2818 20.4562 8.51378 20.7088 7.88041 20.4764C7.24704 20.244 6.79487 19.7624 6.52556 19.0332C6.25625 18.3023 6.20472 17.5478 6.37428 16.7698C6.54218 15.9918 6.9744 15.4209 7.66762 15.0605C8.36084 14.6984 9.3616 14.7776 10.6699 15.2963C11.2634 15.7055 11.526 16.3639 11.4579 17.2716ZM28.1865 13.7301C28.652 13.4236 29.0992 13.3108 29.5314 13.3916C29.9486 13.4606 30.2828 13.6375 30.5321 13.9237C30.7815 14.21 30.8929 14.5149 30.8663 14.8348C30.8397 15.1565 30.6169 15.4124 30.1997 15.6027C29.6195 15.8756 28.5223 15.8419 26.9048 15.5C27.2938 14.6277 27.721 14.0366 28.1865 13.7301ZM90.7107 19.6377C90.2053 20.2255 89.542 20.4713 88.7192 20.3754C87.8431 20.1564 87.3577 19.6175 87.2629 18.757C87.1681 17.8964 87.4142 17.1218 88.001 16.433C88.5878 15.7442 89.4523 15.5556 90.5993 15.8705C91.2327 16.2932 91.5352 16.8809 91.5086 17.632C91.482 18.3814 91.2161 19.05 90.7107 19.6377Z" fill="white"/>
</svg>
