<svg width="40" height="40" viewBox="0 0 40 40" fill="none" xmlns="http://www.w3.org/2000/svg">
<rect width="40" height="40" rx="11" fill="#020344" fill-opacity="0.2"/>
<path d="M11.9903 24.9192C11.3598 25.2789 10.6403 25.5192 9.85981 25.5192C9.07933 25.5192 8.35981 25.3094 7.72933 24.9192C6.82933 25.3387 6.16957 26.1789 6.01957 27.1997L5.75004 29.5094C5.71957 29.8094 5.90004 30.1094 6.20004 30.1692C7.34028 30.4094 8.56956 30.5289 9.85974 30.5289C11.1499 30.5289 12.3793 30.4094 13.5194 30.1692C13.8194 30.1094 13.9999 29.8094 13.9694 29.5094L13.6999 27.1997C13.5804 26.1801 12.9194 25.3399 11.9901 24.9192H11.9903Z" fill="#020344"/>
<path d="M12.5597 21.3499C12.5597 22.8405 11.3515 24.0499 9.8597 24.0499C8.36906 24.0499 7.1597 22.8405 7.1597 21.3499C7.1597 19.8593 8.36906 18.6499 9.8597 18.6499C11.3515 18.6499 12.5597 19.8593 12.5597 21.3499Z" fill="#020344"/>
<path d="M7.15977 15.6805H8.69025L9.40977 17.1207C9.59023 17.4805 10.1293 17.4805 10.3098 17.1207L11.0293 15.6805H12.5598C13.0402 15.6805 13.4598 15.2902 13.4598 14.7805V10.3402C13.4598 9.85971 13.0695 9.44019 12.5598 9.44019H7.15977C6.67929 9.44019 6.25977 9.83043 6.25977 10.3402V14.7805C6.25977 15.2902 6.68046 15.6805 7.15977 15.6805V15.6805ZM8.33046 12.1099C8.51092 11.9294 8.81094 11.9294 8.99022 12.1099L9.55974 12.6794L10.7902 11.4489C10.9707 11.2685 11.2707 11.2685 11.45 11.4489C11.6304 11.6294 11.6304 11.9294 11.45 12.1087L9.9195 13.6392C9.82926 13.7294 9.70973 13.7587 9.58902 13.7587C9.46948 13.7587 9.34878 13.7282 9.25854 13.6392L8.35854 12.7392C8.14994 12.5903 8.14994 12.2903 8.33041 12.1099L8.33046 12.1099Z" fill="#020344"/>
<path d="M33.9806 27.1999C33.861 26.1804 33.2001 25.3097 32.2708 24.9194C31.6403 25.2792 30.9208 25.5194 30.1403 25.5194C29.3599 25.5194 28.6403 25.3097 28.0099 24.9194C27.1098 25.339 26.4501 26.1792 26.3001 27.1999L26.0306 29.5097C26.0001 29.8097 26.1806 30.1097 26.4806 30.1694C27.6208 30.4097 28.8501 30.5292 30.1403 30.5292C31.4 30.5292 32.6598 30.4097 33.8 30.1694C34.1 30.1097 34.2804 29.8097 34.25 29.5097L33.9806 27.1999Z" fill="#020344"/>
<path d="M32.8403 21.3499C32.8403 22.8405 31.6309 24.0499 30.1403 24.0499C28.6485 24.0499 27.4403 22.8405 27.4403 21.3499C27.4403 19.8593 28.6485 18.6499 30.1403 18.6499C31.6309 18.6499 32.8403 19.8593 32.8403 21.3499Z" fill="#020344"/>
<path d="M27.4403 15.6805H28.9708L29.6903 17.1207C29.8708 17.4805 30.4098 17.4805 30.5903 17.1207L31.3098 15.6805H32.8403C33.3208 15.6805 33.7403 15.2902 33.7403 14.7805V10.3402C33.7403 9.85971 33.35 9.44019 32.8403 9.44019H27.4403C26.9598 9.44019 26.5403 9.83043 26.5403 10.3402V14.7805C26.5403 15.2902 26.9305 15.6805 27.4403 15.6805ZM28.6098 12.1099C28.7903 11.9294 29.0903 11.9294 29.2696 12.1099L29.8391 12.6794L31.0696 11.4489C31.25 11.2685 31.55 11.2685 31.7293 11.4489C31.9098 11.6294 31.9098 11.9294 31.7293 12.1087L30.1988 13.6392C30.1086 13.7294 29.9891 13.7587 29.8684 13.7587C29.7488 13.7587 29.6281 13.7282 29.5379 13.6392L28.6379 12.7392C28.4305 12.5903 28.4305 12.2903 28.6098 12.1099L28.6098 12.1099Z" fill="#020344"/>
<path d="M22.1306 24.9192C21.5001 25.2789 20.7806 25.5192 20.0001 25.5192C19.2196 25.5192 18.5001 25.3094 17.8696 24.9192C16.9696 25.3387 16.3099 26.1789 16.1599 27.1997L15.8903 29.5094C15.8599 29.8094 16.0403 30.1094 16.3403 30.1692C17.4806 30.4094 18.7098 30.5289 20 30.5289C21.2902 30.5289 22.5196 30.4094 23.6597 30.1692C23.9597 30.1094 24.1402 29.8094 24.1097 29.5094L23.8402 27.1997C23.7195 26.1801 23.0304 25.3399 22.1304 24.9192H22.1306Z" fill="#020344"/>
<path d="M22.7 21.3499C22.7 22.8405 21.4906 24.0499 20 24.0499C18.5093 24.0499 17.3 22.8405 17.3 21.3499C17.3 19.8593 18.5093 18.6499 20 18.6499C21.4906 18.6499 22.7 19.8593 22.7 21.3499Z" fill="#020344"/>
<path d="M17.3 15.6805H18.8305L19.55 17.1207C19.7305 17.4805 20.2695 17.4805 20.45 17.1207L21.1695 15.6805H22.7C23.1805 15.6805 23.6 15.2902 23.6 14.7805V10.3402C23.6 9.85971 23.2098 9.44019 22.7 9.44019H17.3C16.8195 9.44019 16.4 9.83043 16.4 10.3402V14.7805C16.4 15.2902 16.7902 15.6805 17.3 15.6805ZM18.5902 11.8099C18.4098 11.6294 18.4098 11.3294 18.5902 11.1501C18.7707 10.9697 19.0707 10.9697 19.25 11.1501L20 11.9001L20.75 11.1501C20.9305 10.9697 21.2305 10.9697 21.4098 11.1501C21.5902 11.3306 21.5902 11.6306 21.4098 11.8099L20.6598 12.5599L21.4098 13.3099C21.5902 13.4904 21.5902 13.7904 21.4098 13.9696C21.3195 14.0599 21.2 14.0892 21.0793 14.0892C20.9597 14.0892 20.839 14.0587 20.7488 13.9696L20 13.2196L19.25 13.9696C19.1597 14.0599 19.0402 14.0892 18.9195 14.0892C18.8 14.0892 18.6792 14.0587 18.589 13.9696C18.4085 13.7892 18.4085 13.4892 18.589 13.3099L19.339 12.5599L18.5902 11.8099Z" fill="#020344"/>
</svg>
